<svg xmlns="http://www.w3.org/2000/svg" width="48" height="48" fill="none"><g clip-path="url(#a)"><rect width="48" height="48" fill="#fff" rx="24"/><path fill="url(#b)" d="M24-1c-10.43 0-13.48.01-14.07.06A12.4 12.4 0 0 0 5 .3C3.88.85 3 1.5 2.13 2.4a10.73 10.73 0 0 0-2.9 6.08C-.94 9.65-.99 9.9-1 15.86V24c0 10.43.01 13.48.06 14.07.18 2.09.5 3.4 1.2 4.84a10.53 10.53 0 0 0 6.82 5.57c1.03.27 2.17.41 3.63.48.62.03 6.93.05 13.24.05 6.32 0 12.63 0 13.24-.04 1.69-.08 2.67-.21 3.76-.5a10.47 10.47 0 0 0 6.82-5.58c.68-1.4 1.03-2.76 1.18-4.74.04-.43.05-7.3.05-14.16s-.02-13.71-.05-14.14c-.16-2.01-.5-3.36-1.2-4.79a9.91 9.91 0 0 0-2.14-2.93 10.79 10.79 0 0 0-6.09-2.9c-1.17-.16-1.4-.21-7.37-.22H24Z"/><path fill="url(#c)" d="M24-1c-10.43 0-13.48.01-14.07.06A12.4 12.4 0 0 0 5 .3C3.88.85 3 1.5 2.13 2.4a10.73 10.73 0 0 0-2.9 6.08C-.94 9.65-.99 9.9-1 15.86V24c0 10.43.01 13.48.06 14.07.18 2.09.5 3.4 1.2 4.84a10.53 10.53 0 0 0 6.82 5.57c1.03.27 2.17.41 3.63.48.62.03 6.93.05 13.24.05 6.32 0 12.63 0 13.24-.04 1.69-.08 2.67-.21 3.76-.5a10.47 10.47 0 0 0 6.82-5.58c.68-1.4 1.03-2.76 1.18-4.74.04-.43.05-7.3.05-14.16s-.02-13.71-.05-14.14c-.16-2.01-.5-3.36-1.2-4.79a9.91 9.91 0 0 0-2.14-2.93 10.79 10.79 0 0 0-6.09-2.9c-1.17-.16-1.4-.21-7.37-.22H24Z"/><path fill="#fff" d="M24 8c-4.35 0-4.9.02-6.6.1-1.7.07-2.86.34-3.88.74-1.05.4-1.95.96-2.83 1.85a7.85 7.85 0 0 0-1.85 2.83c-.4 1.02-.67 2.18-.74 3.88-.08 1.7-.1 2.25-.1 6.6s.02 4.89.1 6.6c.07 1.7.34 2.86.74 3.88.4 1.05.96 1.94 1.84 2.83a7.83 7.83 0 0 0 2.84 1.85c1.01.4 2.18.67 3.88.74 1.7.08 2.25.1 6.6.1 4.34 0 4.88-.02 6.59-.1 1.7-.07 2.87-.34 3.88-.74a7.83 7.83 0 0 0 2.84-1.85 7.85 7.85 0 0 0 1.84-2.83c.4-1.02.66-2.18.74-3.88.08-1.71.1-2.25.1-6.6s-.02-4.9-.1-6.6c-.08-1.7-.35-2.86-.74-3.88a7.85 7.85 0 0 0-1.84-2.83 7.82 7.82 0 0 0-2.84-1.85c-1.02-.4-2.18-.67-3.88-.74-1.7-.08-2.25-.1-6.6-.1Zm-1.44 2.88H24c4.27 0 4.77.02 6.46.1 1.56.07 2.4.33 2.97.55.75.29 1.28.63 1.84 1.2.56.55.9 1.09 1.2 1.83.21.57.48 1.41.55 2.97.07 1.69.09 2.2.09 6.47s-.02 4.77-.1 6.46a8.85 8.85 0 0 1-.54 2.97 4.95 4.95 0 0 1-1.2 1.84c-.56.56-1.1.9-1.84 1.2-.56.21-1.41.47-2.97.55-1.69.07-2.2.09-6.46.09-4.27 0-4.78-.02-6.47-.1a8.87 8.87 0 0 1-2.97-.55 4.95 4.95 0 0 1-1.84-1.2c-.56-.55-.9-1.08-1.2-1.83a8.84 8.84 0 0 1-.54-2.97c-.08-1.69-.1-2.2-.1-6.47s.02-4.77.1-6.46c.07-1.56.33-2.4.55-2.97.29-.75.63-1.28 1.2-1.84.55-.56 1.09-.9 1.83-1.2a8.84 8.84 0 0 1 2.97-.55c1.48-.07 2.05-.09 5.03-.1v.01Zm9.98 2.66a1.92 1.92 0 1 0 0 3.84 1.92 1.92 0 0 0 0-3.84ZM24 15.78a8.22 8.22 0 1 0 0 16.44 8.22 8.22 0 0 0 0-16.44Zm0 2.89a5.33 5.33 0 1 1 0 10.66 5.33 5.33 0 0 1 0-10.66Z"/></g><defs><radialGradient id="b" cx="0" cy="0" r="1" gradientTransform="matrix(0 -50 46 0 12.28 52.85)" gradientUnits="userSpaceOnUse"><stop stop-color="#FFCB01"/><stop offset=".1" stop-color="#FFD200"/><stop offset=".5" stop-color="#FF543E"/><stop offset="1" stop-color="#C837AB"/></radialGradient><radialGradient id="c" cx="0" cy="0" r="1" gradientTransform="matrix(4 22 -90 18 -9.38 2.6)" gradientUnits="userSpaceOnUse"><stop stop-color="#3771C8"/><stop offset=".13" stop-color="#3771C8"/><stop offset="1" stop-color="#60F" stop-opacity="0"/></radialGradient><clipPath id="a"><rect width="48" height="48" fill="#fff" rx="24"/></clipPath></defs></svg>