<svg xmlns="http://www.w3.org/2000/svg" width="48" height="48" fill="none"><rect width="48" height="48" fill="url(#a)" rx="24"/><path fill="#fff" d="m33.6 19.94-4.7 7.46a2.4 2.4 0 0 1-3.46.64l-3.74-2.8a.96.96 0 0 0-1.16 0l-5.05 3.83c-.67.51-1.55-.3-1.1-1.01l4.7-7.46a2.4 2.4 0 0 1 3.47-.64l3.74 2.8c.34.26.82.26 1.16 0l5.05-3.83c.67-.51 1.55.3 1.1 1.01ZM24 8C14.99 8 8 14.6 8 23.52c0 4.66 1.91 8.7 5.02 11.48.27.23.42.56.43.91l.1 2.85c.02.9.96 1.5 1.79 1.13l3.17-1.4c.27-.12.57-.14.86-.07 1.46.4 3.01.62 4.63.62 9.01 0 16-6.6 16-15.52S33.01 8 24 8Z"/><defs><linearGradient id="a" x1="48" x2="3.43" y1="0" y2="46.29" gradientUnits="userSpaceOnUse"><stop stop-color="#FF6C5C"/><stop offset=".26" stop-color="#FF5297"/><stop offset=".62" stop-color="#A10EEB"/><stop offset="1" stop-color="#0A7CFF"/></linearGradient></defs></svg>