<svg xmlns="http://www.w3.org/2000/svg" width="48" height="48" fill="none"><rect width="48" height="48" fill="#25D366" rx="24"/><g clip-path="url(#a)"><path fill="#fff" fill-rule="evenodd" d="M34.98 13a15.37 15.37 0 0 0-10.91-4.5c-8.51 0-15.44 6.89-15.44 15.35 0 2.7.7 5.35 2.06 7.67L8.5 39.48l8.18-2.14A15.41 15.41 0 0 0 39.5 23.86c0-4.1-1.6-7.96-4.52-10.86ZM24.07 36.62h-.01c-2.3 0-4.56-.62-6.53-1.78l-.47-.28-4.85 1.27 1.3-4.7-.31-.5a12.67 12.67 0 0 1-1.96-6.78c0-7.03 5.75-12.76 12.83-12.76a12.78 12.78 0 0 1 12.82 12.77c0 7.03-5.75 12.76-12.82 12.76Zm7.03-9.56c-.38-.19-2.28-1.12-2.63-1.24-.36-.13-.61-.2-.87.19-.26.38-1 1.25-1.22 1.5-.23.26-.45.29-.84.1-.38-.2-1.63-.6-3.1-1.9a11.57 11.57 0 0 1-2.14-2.66c-.23-.39-.03-.6.16-.79.18-.17.39-.44.58-.67.2-.22.26-.38.39-.64.13-.25.06-.48-.03-.67-.1-.2-.87-2.08-1.2-2.85-.3-.74-.62-.64-.86-.66h-.74c-.26 0-.67.09-1.03.47-.35.39-1.35 1.31-1.35 3.2 0 1.89 1.38 3.71 1.58 3.97.19.26 2.72 4.13 6.58 5.8.92.39 1.64.62 2.2.8.93.3 1.77.25 2.43.15.74-.1 2.28-.93 2.6-1.82.33-.9.33-1.67.23-1.83-.1-.16-.35-.25-.74-.44Z" clip-rule="evenodd"/></g><defs><clipPath id="a"><path fill="#fff" d="M8.5 8.5h31v31h-31z"/></clipPath></defs></svg>